<svg width="134" height="40" viewBox="0 0 134 40" fill="none" xmlns="http://www.w3.org/2000/svg">
<g clip-path="url(#clip0_95_7961)">
<g clip-path="url(#clip1_95_7961)">
<path d="M128.351 39.3955H5.54692C2.84524 39.3955 0.634766 37.185 0.634766 34.4834V5.01043C0.634766 2.30874 2.84524 0.0982742 5.54692 0.0982742H128.351C131.052 0.0982742 133.263 2.30874 133.263 5.01043V34.4834C133.263 37.185 131.052 39.3955 128.351 39.3955Z" fill="#294646"/>
<path d="M128.351 0.0982742H5.54692C2.84524 0.0982742 0.634766 2.30874 0.634766 5.01043V34.4834C0.634766 37.185 2.84524 39.3955 5.54692 39.3955H128.351C131.052 39.3955 133.263 37.185 133.263 34.4834V5.01043C133.263 2.30874 131.052 0.0982742 128.351 0.0982742ZM128.351 0.884216C130.626 0.884216 132.477 2.73551 132.477 5.01043V34.4834C132.477 36.7587 130.626 38.61 128.351 38.61H5.54692C3.272 38.61 1.42071 36.7587 1.42071 34.4834V5.01043C1.42071 2.73551 3.272 0.884216 5.54692 0.884216H128.351Z" fill="#294646"/>
<path d="M47.071 9.62297H44.219V10.3291H46.3557C46.2988 10.9047 46.0687 11.3575 45.6818 11.686C45.295 12.0145 44.8022 12.1788 44.219 12.1788C43.5773 12.1788 43.0339 11.9578 42.5902 11.5141C42.1544 11.0613 41.9333 10.5025 41.9333 9.82868C41.9333 9.15328 42.1544 8.59449 42.5902 8.14327C43.0339 7.69804 43.5773 7.477 44.219 7.477C44.5474 7.477 44.859 7.53378 45.1476 7.65816C45.4347 7.78096 45.6649 7.95288 45.846 8.17549L46.3879 7.6336C46.1423 7.3542 45.8291 7.13935 45.4438 6.98275C45.0571 6.82773 44.6533 6.75405 44.219 6.75405C43.3639 6.75405 42.6394 7.04877 42.0485 7.64126C41.456 8.23375 41.1597 8.96446 41.1597 9.82868C41.1597 10.6913 41.456 11.4235 42.0485 12.0145C42.6394 12.607 43.3639 12.9033 44.219 12.9033C45.1139 12.9033 45.8291 12.6147 46.3803 12.0314C46.8653 11.5463 47.1125 10.8894 47.1125 10.0666C47.1125 9.92692 47.0956 9.77799 47.071 9.62297ZM48.2073 6.88451V12.7713H51.6426V12.0483H48.9625V10.1818H51.3801V9.47404H48.9625V7.60904H51.6426V6.88451H48.2073ZM56.4836 7.60904V6.88451H52.4389V7.60904H54.0829V12.7713H54.8381V7.60904H56.4836ZM60.1746 6.88451H59.4194V12.7713H60.1746V6.88451ZM65.1775 7.60904V6.88451H61.1329V7.60904H62.7768V12.7713H63.532V7.60904H65.1775ZM72.8388 7.64892C72.2555 7.04877 71.5402 6.75405 70.6852 6.75405C69.8302 6.75405 69.1149 7.04877 68.5316 7.64126C67.9483 8.22461 67.6597 8.9568 67.6597 9.82868C67.6597 10.699 67.9483 11.4312 68.5316 12.0145C69.1149 12.607 69.8302 12.9033 70.6852 12.9033C71.5325 12.9033 72.2555 12.607 72.8388 12.0145C73.4237 11.4312 73.7107 10.699 73.7107 9.82868C73.7107 8.96446 73.4237 8.23375 72.8388 7.64892ZM69.0735 8.14327C69.5094 7.69804 70.0436 7.477 70.6852 7.477C71.3268 7.477 71.861 7.69804 72.2893 8.14327C72.7237 8.57916 72.9386 9.14562 72.9386 9.82868C72.9386 10.5102 72.7237 11.0782 72.2893 11.5141C71.861 11.9578 71.3268 12.1788 70.6852 12.1788C70.0436 12.1788 69.5094 11.9578 69.0735 11.5141C68.6467 11.069 68.4333 10.5102 68.4333 9.82868C68.4333 9.14562 68.6467 8.58682 69.0735 8.14327ZM75.5374 9.10416L75.5051 7.96977H75.5374L78.5306 12.7713H79.3197V6.88451H78.5628V10.3291L78.5966 11.4634H78.5628L75.7016 6.88451H74.7821V12.7713H75.5374V9.10416Z" fill="white" stroke="white" stroke-width="0.105317" stroke-miterlimit="10"/>
<path d="M105.591 29.4721H107.424V17.1905H105.591V29.4721ZM122.103 21.6148L120.001 26.9394H119.938L117.757 21.6148H115.783L119.054 29.0565L117.189 33.1964H119.1L124.141 21.6148H122.103ZM111.706 28.0772C111.106 28.0772 110.268 27.7767 110.268 27.0342C110.268 26.0862 111.312 25.7229 112.212 25.7229C113.017 25.7229 113.397 25.8963 113.887 26.1335C113.744 27.2713 112.765 28.0772 111.706 28.0772ZM111.928 21.3461C110.601 21.3461 109.226 21.931 108.657 23.2266L110.284 23.9058C110.632 23.2266 111.279 23.0055 111.959 23.0055C112.907 23.0055 113.871 23.5738 113.887 24.5854V24.7117C113.555 24.5221 112.843 24.2377 111.975 24.2377C110.22 24.2377 108.435 25.2013 108.435 27.0026C108.435 28.6459 109.874 29.7047 111.485 29.7047C112.717 29.7047 113.397 29.1516 113.823 28.5036H113.887V29.4522H115.657V24.7431C115.657 22.5626 114.028 21.3461 111.928 21.3461ZM100.599 23.1098H97.9913V18.9001H100.599C101.969 18.9001 102.747 20.0345 102.747 21.0049C102.747 21.9567 101.969 23.1098 100.599 23.1098ZM100.551 17.1905H96.1589V29.4721H97.9913V24.8191H100.551C102.583 24.8191 104.58 23.3486 104.58 21.0049C104.58 18.6618 102.583 17.1905 100.551 17.1905ZM76.599 28.0794C75.3326 28.0794 74.2727 27.0187 74.2727 25.5632C74.2727 24.0908 75.3326 23.015 76.599 23.015C77.8493 23.015 78.8306 24.0908 78.8306 25.5632C78.8306 27.0187 77.8493 28.0794 76.599 28.0794ZM78.7039 22.3025H78.6406C78.2292 21.812 77.4375 21.3688 76.441 21.3688C74.3514 21.3688 72.4365 23.205 72.4365 25.5632C72.4365 27.9053 74.3514 29.7254 76.441 29.7254C77.4375 29.7254 78.2292 29.2821 78.6406 28.776H78.7039V29.3769C78.7039 30.976 77.8493 31.8303 76.4724 31.8303C75.3491 31.8303 74.6527 31.0232 74.3675 30.3428L72.7692 31.0075C73.2278 32.115 74.4462 33.4766 76.4724 33.4766C78.6252 33.4766 80.4454 32.2102 80.4454 29.1236V21.6221H78.7039V22.3025ZM81.7118 29.4721H83.5469V17.1905H81.7118V29.4721ZM86.2535 25.4205C86.2063 23.806 87.5045 22.9832 88.4378 22.9832C89.1662 22.9832 89.7828 23.3474 89.9893 23.8693L86.2535 25.4205ZM91.9511 24.0274C91.603 23.0941 90.5427 21.3688 88.3745 21.3688C86.2216 21.3688 84.4333 23.0623 84.4333 25.5471C84.4333 27.8895 86.2063 29.7254 88.5798 29.7254C90.4947 29.7254 91.603 28.5545 92.0623 27.8737L90.6378 26.9239C90.1628 27.6205 89.5142 28.0794 88.5798 28.0794C87.6465 28.0794 86.9815 27.652 86.5547 26.8131L92.141 24.5025L91.9511 24.0274ZM47.4404 22.6509V24.4234H51.682C51.5553 25.4205 51.223 26.1484 50.7165 26.655C50.099 27.272 49.1335 27.9528 47.4404 27.9528C44.8289 27.9528 42.7874 25.8479 42.7874 23.2365C42.7874 20.625 44.8289 18.5199 47.4404 18.5199C48.8491 18.5199 49.8776 19.0739 50.6374 19.7862L51.8881 18.5356C50.8274 17.5228 49.419 16.7473 47.4404 16.7473C43.863 16.7473 40.856 19.6595 40.856 23.2365C40.856 26.8131 43.863 29.7254 47.4404 29.7254C49.3711 29.7254 50.8274 29.0922 51.9668 27.9053C53.138 26.734 53.5022 25.0881 53.5022 23.7584C53.5022 23.3474 53.4702 22.9675 53.407 22.6509H47.4404ZM58.3244 28.0794C57.058 28.0794 55.9659 27.0349 55.9659 25.5471C55.9659 24.0435 57.058 23.015 58.3244 23.015C59.5903 23.015 60.6825 24.0435 60.6825 25.5471C60.6825 27.0349 59.5903 28.0794 58.3244 28.0794ZM58.3244 21.3688C56.013 21.3688 54.1299 23.1256 54.1299 25.5471C54.1299 27.9528 56.013 29.7254 58.3244 29.7254C60.6349 29.7254 62.5184 27.9528 62.5184 25.5471C62.5184 23.1256 60.6349 21.3688 58.3244 21.3688ZM67.4734 28.0794C66.2078 28.0794 65.1153 27.0349 65.1153 25.5471C65.1153 24.0435 66.2078 23.015 67.4734 23.015C68.7398 23.015 69.8315 24.0435 69.8315 25.5471C69.8315 27.0349 68.7398 28.0794 67.4734 28.0794ZM67.4734 21.3688C65.1628 21.3688 63.2798 23.1256 63.2798 25.5471C63.2798 27.9528 65.1628 29.7254 67.4734 29.7254C69.7848 29.7254 71.6679 27.9528 71.6679 25.5471C71.6679 23.1256 69.7848 21.3688 67.4734 21.3688Z" fill="white"/>
<path d="M20.8894 19.0825L10.4302 30.1837C10.4306 30.186 10.4314 30.1879 10.4317 30.1902C10.7525 31.3956 11.8535 32.2832 13.1602 32.2832C13.6825 32.2832 14.1729 32.142 14.5935 31.8941L14.6269 31.8745L26.4001 25.081L20.8894 19.0825Z" fill="#EB3131"/>
<path d="M31.471 17.1924L31.461 17.1856L26.3782 14.239L20.6519 19.3346L26.3981 25.0801L31.4541 22.1628C32.3405 21.6843 32.9423 20.7498 32.9423 19.6722C32.9423 18.6024 32.3486 17.6725 31.471 17.1924Z" fill="#F6B60B"/>
<path d="M10.4294 9.11401C10.3665 9.34585 10.3335 9.5887 10.3335 9.84089V29.4572C10.3335 29.7089 10.3662 29.9526 10.4298 30.1836L21.249 19.3664L10.4294 9.11401Z" fill="#5778C5"/>
<path d="M20.9664 19.6489L26.38 14.2368L14.6202 7.41875C14.1928 7.16274 13.6939 7.01499 13.1601 7.01499C11.8534 7.01499 10.7509 7.90416 10.4301 9.11105C10.4297 9.11223 10.4297 9.11301 10.4297 9.11409L20.9664 19.6489Z" fill="#3BAD49"/>
</g>
</g>
<defs>
<clipPath id="clip0_95_7961">
<rect width="132.628" height="39.4937" fill="white" transform="translate(0.760742)"/>
</clipPath>
<clipPath id="clip1_95_7961">
<rect width="132.923" height="39.4937" fill="white" transform="translate(0.536621)"/>
</clipPath>
</defs>
</svg>
