<svg width="119" height="40" viewBox="0 0 119 40" fill="none" xmlns="http://www.w3.org/2000/svg">
<g clip-path="url(#clip0_95_7960)">
<path d="M109.352 0.000128355H10.0253C9.66327 0.000128355 9.30556 0.000128355 8.94445 0.00210304C8.64218 0.00407773 8.34231 0.00981419 8.03714 0.0146423C7.37415 0.0224441 6.71272 0.0807708 6.0586 0.189116C5.4054 0.299819 4.77266 0.508527 4.18178 0.80818C3.59162 1.11037 3.05238 1.50303 2.58362 1.97192C2.11239 2.43949 1.71958 2.97995 1.42031 3.57249C1.1202 4.16386 0.912113 4.79757 0.803218 5.45172C0.693288 6.10505 0.634134 6.76592 0.626286 7.42838C0.617124 7.7311 0.616156 8.03483 0.611328 8.33759V31.1593C0.616156 31.4659 0.617124 31.7629 0.626286 32.0695C0.634137 32.732 0.693291 33.3928 0.803218 34.0461C0.911812 34.7006 1.11992 35.3347 1.42031 35.9263C1.71945 36.5169 2.11231 37.0552 2.58362 37.5201C3.0506 37.9911 3.59019 38.3841 4.18178 38.6839C4.77265 38.9844 5.40532 39.1943 6.0586 39.3067C6.71283 39.4142 7.37419 39.4726 8.03714 39.4813C8.34231 39.488 8.64218 39.4919 8.94445 39.4919C9.30555 39.4938 9.66329 39.4938 10.0253 39.4938H109.352C109.707 39.4938 110.068 39.4938 110.422 39.4919C110.723 39.4919 111.032 39.488 111.333 39.4813C111.994 39.473 112.654 39.4147 113.307 39.3067C113.963 39.1935 114.598 38.9836 115.191 38.6839C115.782 38.3839 116.322 37.991 116.788 37.5201C117.258 37.0534 117.652 36.5155 117.955 35.9263C118.253 35.3343 118.459 34.7002 118.566 34.0461C118.676 33.3927 118.737 32.732 118.749 32.0695C118.753 31.7629 118.753 31.4659 118.753 31.1593C118.761 30.8006 118.761 30.4439 118.761 30.0793V9.41556C118.761 9.05398 118.761 8.6953 118.753 8.33759C118.753 8.03483 118.753 7.7311 118.749 7.42834C118.737 6.76582 118.676 6.1051 118.566 5.45168C118.459 4.79791 118.253 4.16425 117.955 3.57245C117.345 2.38476 116.379 1.41798 115.191 0.808091C114.598 0.50917 113.963 0.300518 113.307 0.189027C112.655 0.0802046 111.994 0.0218576 111.333 0.0145041C111.032 0.00968583 110.723 0.0039 110.422 0.00197469C110.068 0 109.707 0 109.352 0V0.000128355Z" fill="#294646"/>
<path d="M8.94913 38.6296C8.6483 38.6296 8.35475 38.6258 8.05628 38.6191C7.43799 38.611 6.82114 38.5572 6.2108 38.458C5.64169 38.36 5.09037 38.1777 4.57503 37.9171C4.06442 37.6586 3.5987 37.3197 3.19571 36.9133C2.78689 36.5118 2.44653 36.046 2.18812 35.5345C1.92686 35.0197 1.74605 34.4679 1.65199 33.8983C1.55042 33.2863 1.49546 32.6674 1.4876 32.047C1.48134 31.8388 1.47314 31.1455 1.47314 31.1455V8.3373C1.47314 8.3373 1.48187 7.65465 1.48765 7.45409C1.49518 6.83471 1.54981 6.2168 1.65108 5.60571C1.74531 5.03455 1.92626 4.48115 2.18767 3.96465C2.44513 3.45351 2.7836 2.98741 3.18996 2.58439C3.59586 2.17755 4.06307 1.8369 4.57455 1.57486C5.0887 1.31508 5.63898 1.13404 6.20694 1.03781C6.81929 0.937658 7.43828 0.883513 8.05871 0.875825L8.94961 0.86377H110.417L111.319 0.876309C111.934 0.883614 112.547 0.937277 113.154 1.03684C113.728 1.13428 114.284 1.31658 114.804 1.57776C115.828 2.10583 116.662 2.9413 117.188 3.96706C117.445 4.47999 117.623 5.02888 117.716 5.59511C117.819 6.21121 117.876 6.83397 117.888 7.45843C117.891 7.73805 117.891 8.0384 117.891 8.3373C117.899 8.70756 117.899 9.05997 117.899 9.41528V30.0791C117.899 30.4378 117.899 30.7878 117.891 31.1406C117.891 31.4617 117.891 31.7559 117.887 32.0586C117.876 32.6719 117.819 33.2835 117.718 33.8886C117.626 34.4623 117.446 35.0184 117.185 35.5375C116.925 36.0434 116.587 36.5051 116.182 36.9056C115.779 37.3142 115.313 37.6551 114.801 37.9152C114.282 38.1778 113.727 38.3608 113.154 38.458C112.544 38.5577 111.927 38.6116 111.308 38.6191C111.019 38.6258 110.716 38.6296 110.422 38.6296L109.352 38.6316L8.94913 38.6296Z" fill="#294646"/>
<path d="M25.2915 19.6389C25.3026 18.782 25.5302 17.9417 25.9532 17.1963C26.3763 16.451 26.981 15.8247 27.7111 15.3759C27.2473 14.7135 26.6354 14.1683 25.9241 13.7838C25.2127 13.3992 24.4215 13.1858 23.6132 13.1605C21.8891 12.9795 20.2176 14.1922 19.339 14.1922C18.4434 14.1922 17.0907 13.1785 15.6341 13.2084C14.6918 13.2389 13.7736 13.5129 12.9688 14.0037C12.1639 14.4945 11.5 15.1855 11.0416 16.0092C9.0559 19.4472 10.537 24.4998 12.4391 27.2788C13.3908 28.6396 14.5031 30.1596 15.9584 30.1057C17.3826 30.0466 17.9144 29.1976 19.6335 29.1976C21.3366 29.1976 21.8356 30.1057 23.3205 30.0714C24.8487 30.0466 25.8115 28.7046 26.7298 27.3309C27.4136 26.3613 27.9398 25.2897 28.2888 24.1557C27.401 23.7802 26.6433 23.1517 26.1103 22.3485C25.5773 21.5452 25.2926 20.6029 25.2915 19.6389Z" fill="white"/>
<path d="M22.4867 11.3325C23.3199 10.3322 23.7304 9.04657 23.631 7.74854C22.358 7.88224 21.1821 8.49064 20.3377 9.45251C19.9248 9.92241 19.6085 10.4691 19.407 11.0613C19.2055 11.6535 19.1227 12.2796 19.1634 12.9038C19.8001 12.9103 20.43 12.7723 21.0056 12.5001C21.5813 12.228 22.0877 11.8287 22.4867 11.3325Z" fill="white"/>
<path d="M42.3779 26.7965H37.7044L36.582 30.1104H34.6025L39.0292 17.8496H41.0858L45.5125 30.1104H43.4992L42.3779 26.7965ZM38.1884 25.2672H41.8929L40.0667 19.8889H40.0156L38.1884 25.2672Z" fill="white"/>
<path d="M55.0723 25.6409C55.0723 28.4188 53.5855 30.2035 51.3418 30.2035C50.7734 30.2332 50.2081 30.1023 49.7107 29.8257C49.2133 29.5491 48.8038 29.1381 48.5292 28.6396H48.4867V33.0672H46.6519V21.1709H48.4279V22.6577H48.4617C48.7489 22.1616 49.1653 21.7526 49.6665 21.4743C50.1677 21.1961 50.735 21.0589 51.308 21.0773C53.5768 21.0773 55.0723 22.8708 55.0723 25.6409ZM53.1863 25.6409C53.1863 23.8311 52.251 22.6413 50.824 22.6413C49.422 22.6413 48.479 23.8562 48.479 25.6409C48.479 27.442 49.422 28.6483 50.824 28.6483C52.251 28.6483 53.1862 27.4671 53.1862 25.6409H53.1863Z" fill="white"/>
<path d="M64.9116 25.6409C64.9116 28.4188 63.4243 30.2035 61.1806 30.2035C60.6123 30.2332 60.047 30.1023 59.5496 29.8257C59.0522 29.5491 58.6427 29.1381 58.3681 28.6396H58.3256V33.0672H56.4907V21.1709H58.2668V22.6577H58.3005C58.5878 22.1616 59.0042 21.7526 59.5054 21.4743C60.0066 21.1961 60.5739 21.0589 61.1468 21.0773C63.4156 21.0773 64.9116 22.8708 64.9116 25.6409ZM63.0251 25.6409C63.0251 23.8311 62.0899 22.6413 60.6629 22.6413C59.2609 22.6413 58.3179 23.8562 58.3179 25.6409C58.3179 27.442 59.2609 28.6483 60.6629 28.6483C62.0899 28.6483 63.0251 27.4671 63.0251 25.6409Z" fill="white"/>
<path d="M71.413 26.6941C71.5489 27.91 72.7301 28.7083 74.3442 28.7083C75.8907 28.7083 77.0034 27.9099 77.0034 26.8136C77.0034 25.862 76.3323 25.2921 74.7433 24.9016L73.1543 24.5188C70.9029 23.975 69.8577 22.9221 69.8577 21.2135C69.8577 19.0981 71.7013 17.645 74.3181 17.645C76.9099 17.645 78.686 19.0981 78.7458 21.2135H76.8935C76.7826 19.99 75.7712 19.2514 74.293 19.2514C72.8149 19.2514 71.8035 19.9986 71.8035 21.0863C71.8035 21.9531 72.4495 22.4631 74.0298 22.8536L75.3807 23.1853C77.8963 23.7802 78.9405 24.7907 78.9405 26.5841C78.9405 28.8779 77.1143 30.3146 74.2082 30.3146C71.4891 30.3146 69.6533 28.9117 69.5347 26.694L71.413 26.6941Z" fill="white"/>
<path d="M82.9026 19.0566V21.1721H84.6025V22.6252H82.9026V27.5532C82.9026 28.3188 83.2429 28.6755 83.9902 28.6755C84.192 28.672 84.3935 28.6578 84.5938 28.6331V30.0774C84.2578 30.1402 83.9163 30.1686 83.5746 30.1623C81.7648 30.1623 81.059 29.4825 81.059 27.7489V22.6252H79.7593V21.1721H81.059V19.0566H82.9026Z" fill="white"/>
<path d="M85.5859 25.642C85.5859 22.8294 87.2424 21.062 89.8255 21.062C92.4173 21.062 94.0661 22.8294 94.0661 25.642C94.0661 28.4623 92.426 30.2219 89.8255 30.2219C87.226 30.2219 85.5859 28.4623 85.5859 25.642ZM92.1965 25.642C92.1965 23.7126 91.3123 22.5739 89.8255 22.5739C88.3387 22.5739 87.4546 23.7213 87.4546 25.642C87.4546 27.579 88.3387 28.7091 89.8255 28.7091C91.3123 28.7091 92.1965 27.579 92.1965 25.642H92.1965Z" fill="white"/>
<path d="M95.5791 21.1708H97.3291V22.6923H97.3716C97.49 22.2171 97.7684 21.7971 98.1599 21.503C98.5515 21.2089 99.0324 21.0586 99.5218 21.0772C99.7332 21.0765 99.9441 21.0995 100.15 21.1457V22.862C99.8835 22.7804 99.605 22.743 99.326 22.7511C99.0594 22.7403 98.7937 22.7873 98.547 22.8889C98.3003 22.9905 98.0786 23.1442 97.8969 23.3396C97.7153 23.535 97.578 23.7674 97.4947 24.0208C97.4113 24.2742 97.3838 24.5427 97.414 24.8077V30.1099H95.5791L95.5791 21.1708Z" fill="white"/>
<path d="M108.61 27.4855C108.364 29.1083 106.783 30.2219 104.761 30.2219C102.161 30.2219 100.547 28.4796 100.547 25.6844C100.547 22.8805 102.17 21.062 104.684 21.062C107.157 21.062 108.713 22.7609 108.713 25.4713V26.1H102.399V26.2108C102.37 26.5398 102.411 26.8713 102.52 27.1831C102.629 27.4949 102.803 27.7801 103.03 28.0195C103.257 28.259 103.533 28.4474 103.839 28.5721C104.145 28.6968 104.474 28.755 104.804 28.7428C105.237 28.7835 105.673 28.683 106.044 28.4565C106.416 28.23 106.705 27.8894 106.868 27.4855L108.61 27.4855ZM102.408 24.8176H106.877C106.893 24.5218 106.848 24.2258 106.745 23.9481C106.642 23.6705 106.482 23.4172 106.276 23.2041C106.07 22.9911 105.823 22.8229 105.549 22.7101C105.275 22.5974 104.98 22.5424 104.684 22.5488C104.385 22.547 104.089 22.6044 103.813 22.7177C103.536 22.831 103.285 22.9979 103.073 23.2089C102.862 23.4198 102.694 23.6706 102.58 23.9467C102.465 24.2228 102.407 24.5188 102.408 24.8176V24.8176Z" fill="white"/>
<path d="M37.9586 8.62094C38.3432 8.59334 38.7293 8.65145 39.0888 8.7911C39.4483 8.93074 39.7723 9.14843 40.0375 9.42846C40.3027 9.7085 40.5024 10.0439 40.6223 10.4105C40.7421 10.777 40.7791 11.1656 40.7306 11.5483C40.7306 13.4304 39.7134 14.5123 37.9586 14.5123H35.8306V8.62094H37.9586ZM36.7456 13.6791H37.8563C38.1312 13.6955 38.4063 13.6505 38.6616 13.5472C38.9168 13.4439 39.1459 13.285 39.332 13.082C39.5181 12.879 39.6566 12.6371 39.7374 12.3739C39.8182 12.1106 39.8394 11.8327 39.7992 11.5603C39.8364 11.2889 39.8132 11.0127 39.7311 10.7514C39.6491 10.49 39.5102 10.2501 39.3245 10.0488C39.1388 9.84742 38.9109 9.68964 38.6571 9.58672C38.4033 9.4838 38.1298 9.4383 37.8563 9.45348H36.7456V13.6791Z" fill="white"/>
<path d="M41.7643 12.2883C41.7364 11.9961 41.7698 11.7013 41.8624 11.4228C41.9551 11.1443 42.1049 10.8882 42.3023 10.671C42.4997 10.4538 42.7404 10.2803 43.0088 10.1615C43.2772 10.0428 43.5675 9.98145 43.861 9.98145C44.1545 9.98145 44.4447 10.0428 44.7132 10.1615C44.9816 10.2803 45.2222 10.4538 45.4196 10.671C45.617 10.8882 45.7669 11.1443 45.8595 11.4228C45.9522 11.7013 45.9856 11.9961 45.9576 12.2883C45.9861 12.5807 45.9531 12.8759 45.8607 13.1549C45.7683 13.4338 45.6185 13.6904 45.4211 13.908C45.2236 14.1256 44.9828 14.2995 44.7141 14.4185C44.4454 14.5375 44.1548 14.599 43.861 14.599C43.5671 14.599 43.2765 14.5375 43.0078 14.4185C42.7391 14.2995 42.4983 14.1256 42.3009 13.908C42.1034 13.6904 41.9537 13.4338 41.8613 13.1549C41.7689 12.8759 41.7358 12.5807 41.7643 12.2883ZM45.0551 12.2883C45.0551 11.3245 44.6222 10.761 43.8624 10.761C43.0997 10.761 42.6707 11.3245 42.6707 12.2883C42.6707 13.2597 43.0998 13.8189 43.8624 13.8189C44.6222 13.8189 45.0551 13.2558 45.0551 12.2883H45.0551Z" fill="white"/>
<path d="M51.5319 14.5123H50.6217L49.7028 11.2379H49.6334L48.7183 14.5123H47.8168L46.5913 10.0664H47.4813L48.2777 13.4589H48.3433L49.2573 10.0664H50.0991L51.0131 13.4589H51.0826L51.8751 10.0664H52.7526L51.5319 14.5123Z" fill="white"/>
<path d="M53.7832 10.0658H54.6278V10.7721H54.6934C54.8046 10.5184 54.9922 10.3057 55.2301 10.1638C55.4679 10.0218 55.7441 9.95752 56.0202 9.97996C56.2365 9.9637 56.4537 9.99632 56.6557 10.0754C56.8577 10.1545 57.0393 10.278 57.1871 10.4368C57.3349 10.5956 57.4451 10.7856 57.5095 10.9928C57.5738 11.2 57.5908 11.419 57.559 11.6336V14.5117H56.6816V11.8539C56.6816 11.1394 56.3711 10.7841 55.7222 10.7841C55.5753 10.7773 55.4287 10.8023 55.2924 10.8574C55.1561 10.9125 55.0333 10.9965 54.9325 11.1035C54.8317 11.2105 54.7552 11.338 54.7082 11.4774C54.6613 11.6167 54.6451 11.7646 54.6606 11.9108V14.5117H53.7832L53.7832 10.0658Z" fill="white"/>
<path d="M58.957 8.33057H59.8345V14.5121H58.957V8.33057Z" fill="white"/>
<path d="M61.0543 12.2864C61.0264 11.9942 61.0598 11.6994 61.1525 11.4209C61.2452 11.1424 61.3951 10.8863 61.5925 10.6691C61.7899 10.4519 62.0306 10.2783 62.299 10.1596C62.5674 10.0408 62.8577 9.97949 63.1512 9.97949C63.4447 9.97949 63.735 10.0408 64.0035 10.1596C64.2719 10.2783 64.5125 10.4519 64.71 10.6691C64.9074 10.8863 65.0573 11.1424 65.1499 11.4209C65.2426 11.6994 65.276 11.9942 65.2481 12.2864C65.2766 12.5789 65.2435 12.8741 65.1511 13.153C65.0586 13.432 64.9089 13.6885 64.7114 13.9061C64.5139 14.1237 64.2731 14.2976 64.0044 14.4166C63.7357 14.5356 63.4451 14.5971 63.1512 14.5971C62.8574 14.5971 62.5667 14.5356 62.2981 14.4166C62.0294 14.2976 61.7885 14.1237 61.5911 13.9061C61.3936 13.6885 61.2438 13.432 61.1514 13.153C61.0589 12.8741 61.0259 12.5789 61.0543 12.2864ZM64.3451 12.2864C64.3451 11.3227 63.9122 10.7591 63.1524 10.7591C62.3897 10.7591 61.9607 11.3227 61.9607 12.2864C61.9607 13.2578 62.3898 13.8171 63.1524 13.8171C63.9122 13.8171 64.3451 13.254 64.3451 12.2864H64.3451Z" fill="white"/>
<path d="M66.1719 13.2559C66.1719 12.4556 66.7678 11.9942 67.8255 11.9286L69.0298 11.8592V11.4755C69.0298 11.0059 68.7193 10.7408 68.1196 10.7408C67.6298 10.7408 67.2904 10.9206 67.193 11.2349H66.3435C66.4332 10.4713 67.1515 9.98145 68.1601 9.98145C69.2747 9.98145 69.9033 10.5363 69.9033 11.4755V14.5132H69.0587V13.8884H68.9893C68.8484 14.1125 68.6505 14.2952 68.4159 14.4179C68.1813 14.5405 67.9183 14.5987 67.6539 14.5864C67.4672 14.6059 67.2786 14.5859 67.1001 14.528C66.9216 14.47 66.7573 14.3753 66.6177 14.25C66.478 14.1246 66.3662 13.9714 66.2894 13.8001C66.2127 13.6289 66.1726 13.4435 66.1719 13.2559ZM69.0298 12.876V12.5043L67.9441 12.5737C67.3318 12.6147 67.0541 12.8229 67.0541 13.2149C67.0541 13.615 67.4012 13.8479 67.8785 13.8479C68.0184 13.862 68.1597 13.8479 68.2939 13.8064C68.4282 13.7648 68.5528 13.6967 68.6602 13.606C68.7676 13.5153 68.8557 13.4039 68.9192 13.2785C68.9827 13.1531 69.0203 13.0162 69.0298 12.876Z" fill="white"/>
<path d="M71.0566 12.2872C71.0566 10.8823 71.7788 9.99238 72.9021 9.99238C73.18 9.97958 73.4557 10.0461 73.6972 10.1843C73.9386 10.3224 74.1357 10.5264 74.2655 10.7724H74.3311V8.33057H75.2085V14.5121H74.3677V13.8096H74.2983C74.1585 14.054 73.9545 14.2554 73.7084 14.3922C73.4623 14.5289 73.1835 14.5957 72.9021 14.5853C71.7711 14.5854 71.0566 13.6954 71.0566 12.2872ZM71.963 12.2872C71.963 13.2302 72.4075 13.7976 73.1509 13.7976C73.8904 13.7976 74.3475 13.222 74.3475 12.291C74.3475 11.3644 73.8856 10.7806 73.1509 10.7806C72.4123 10.7806 71.963 11.3519 71.963 12.2872H71.963Z" fill="white"/>
<path d="M78.8385 12.2883C78.8106 11.9961 78.844 11.7013 78.9367 11.4228C79.0293 11.1443 79.1791 10.8882 79.3766 10.671C79.574 10.4538 79.8146 10.2803 80.083 10.1615C80.3514 10.0428 80.6417 9.98145 80.9352 9.98145C81.2287 9.98145 81.519 10.0428 81.7874 10.1615C82.0558 10.2803 82.2964 10.4538 82.4938 10.671C82.6912 10.8882 82.8411 11.1443 82.9337 11.4228C83.0264 11.7013 83.0598 11.9961 83.0318 12.2883C83.0603 12.5807 83.0273 12.8759 82.9349 13.1549C82.8425 13.4338 82.6927 13.6904 82.4953 13.908C82.2978 14.1256 82.057 14.2995 81.7883 14.4185C81.5196 14.5375 81.229 14.599 80.9352 14.599C80.6413 14.599 80.3507 14.5375 80.082 14.4185C79.8134 14.2995 79.5726 14.1256 79.3751 13.908C79.1776 13.6904 79.0279 13.4338 78.9355 13.1549C78.8431 12.8759 78.8101 12.5807 78.8385 12.2883ZM82.1293 12.2883C82.1293 11.3245 81.6964 10.761 80.9366 10.761C80.174 10.761 79.7449 11.3245 79.7449 12.2883C79.7449 13.2597 80.174 13.8189 80.9366 13.8189C81.6964 13.8189 82.1293 13.2558 82.1293 12.2883Z" fill="white"/>
<path d="M84.209 10.0658H85.0536V10.7721H85.1192C85.2304 10.5184 85.418 10.3057 85.6558 10.1638C85.8937 10.0218 86.1699 9.95752 86.4459 9.97996C86.6623 9.9637 86.8795 9.99632 87.0815 10.0754C87.2835 10.1545 87.4651 10.278 87.6129 10.4368C87.7607 10.5956 87.8709 10.7856 87.9353 10.9928C87.9996 11.2 88.0166 11.419 87.9848 11.6336V14.5117H87.1074V11.8539C87.1074 11.1394 86.7969 10.7841 86.148 10.7841C86.0011 10.7773 85.8545 10.8023 85.7182 10.8574C85.5819 10.9125 85.4591 10.9965 85.3583 11.1035C85.2574 11.2105 85.1809 11.338 85.134 11.4774C85.0871 11.6167 85.0709 11.7646 85.0864 11.9108V14.5117H84.209V10.0658Z" fill="white"/>
<path d="M92.9431 8.95947V10.0866H93.9063V10.8257H92.9431V13.1118C92.9431 13.5775 93.1349 13.7814 93.5717 13.7814C93.6836 13.7811 93.7953 13.7743 93.9063 13.7612V14.4921C93.7487 14.5202 93.5891 14.5352 93.429 14.5369C92.4533 14.5369 92.0647 14.1936 92.0647 13.3365V10.8256H91.3589V10.0866H92.0647V8.95947H92.9431Z" fill="white"/>
<path d="M95.1045 8.33057H95.9742V10.7806H96.0436C96.1603 10.5246 96.353 10.3107 96.5956 10.1682C96.8382 10.0257 97.1188 9.96142 97.3992 9.98418C97.6144 9.97247 97.8296 10.0084 98.0293 10.0894C98.229 10.1704 98.4084 10.2945 98.5546 10.4528C98.7009 10.6111 98.8104 10.7997 98.8753 11.0052C98.9403 11.2107 98.9591 11.428 98.9304 11.6416V14.5121H98.0521V11.8581C98.0521 11.148 97.7213 10.7883 97.1014 10.7883C96.9506 10.7759 96.7989 10.7967 96.6569 10.8491C96.515 10.9014 96.3862 10.9842 96.2796 11.0916C96.1729 11.1989 96.0911 11.3283 96.0396 11.4706C95.9882 11.6129 95.9686 11.7647 95.982 11.9155V14.5121H95.1045L95.1045 8.33057Z" fill="white"/>
<path d="M104.047 13.3109C103.927 13.7172 103.669 14.0687 103.317 14.3038C102.965 14.539 102.541 14.6428 102.12 14.5971C101.827 14.6049 101.536 14.5488 101.267 14.4327C100.998 14.3167 100.757 14.1435 100.562 13.9251C100.367 13.7068 100.221 13.4485 100.135 13.1683C100.05 12.8881 100.026 12.5926 100.066 12.3023C100.027 12.0112 100.051 11.715 100.137 11.434C100.222 11.1529 100.367 10.8935 100.561 10.6732C100.756 10.453 100.995 10.277 101.263 10.1574C101.532 10.0377 101.822 9.97706 102.116 9.97957C103.353 9.97957 104.1 10.8247 104.1 12.2208V12.527H100.96V12.5762C100.946 12.7393 100.967 12.9035 101.02 13.0583C101.074 13.2131 101.159 13.355 101.27 13.4749C101.382 13.5948 101.517 13.6901 101.668 13.7547C101.818 13.8192 101.98 13.8517 102.144 13.8498C102.354 13.875 102.567 13.8372 102.755 13.7413C102.943 13.6453 103.099 13.4955 103.202 13.3109L104.047 13.3109ZM100.96 11.8781H103.206C103.217 11.7289 103.197 11.579 103.146 11.4381C103.096 11.2972 103.017 11.1683 102.914 11.0599C102.811 10.9514 102.686 10.8657 102.548 10.8083C102.41 10.7508 102.261 10.7229 102.111 10.7263C101.96 10.7244 101.809 10.7529 101.668 10.8101C101.528 10.8674 101.4 10.9521 101.293 11.0595C101.186 11.1668 101.101 11.2945 101.044 11.4351C100.987 11.5757 100.958 11.7263 100.96 11.8781H100.96Z" fill="white"/>
</g>
<defs>
<clipPath id="clip0_95_7960">
<rect width="118.149" height="39.4937" fill="white" transform="translate(0.611328)"/>
</clipPath>
</defs>
</svg>
